PathFileType	4	(X/Y/Z)	/Users/niels/Desktop/University/Third Semester/Perception and Action/Exam/Gymnastics Motion Tracking/Code for Gym Tracking/Scripts/Analyzed Data/Start Salto/st_salto_good_id1_1_Sports2D/st_salto_good_id1_1_Sports2D_px_person00.trc
DataRate	CameraRate	NumFrames	NumMarkers	Units	OrigDataRate	OrigDataStartFrame	OrigNumFrames
29.763779527559056	29.763779527559056	9	22	m	29.763779527559056	31	127
Frame#	Time	Hip			RHip			RKnee			RAnkle			RBigToe			RSmallToe			RHeel			LHip			LKnee			LAnkle			LBigToe			LSmallToe			LHeel			Neck			Head			Nose			RShoulder			RElbow			RWrist			LShoulder			LElbow			LWrist		
		X1	Y1	Z1	X2	Y2	Z2	X3	Y3	Z3	X4	Y4	Z4	X5	Y5	Z5	X6	Y6	Z6	X7	Y7	Z7	X8	Y8	Z8	X9	Y9	Z9	X10	Y10	Z10	X11	Y11	Z11	X12	Y12	Z12	X13	Y13	Z13	X14	Y14	Z14	X15	Y15	Z15	X16	Y16	Z16	X17	Y17	Z17	X18	Y18	Z18	X19	Y19	Z19	X20	Y20	Z20	X21	Y21	Z21	X22	Y22	Z22
31	1.0415343915343915	0.6286907345071698	-0.43526660679978063	0.0	0.6259823361739965	-0.438784287586507	0.0	0.5927290896143181	-0.5897809665047384	0.0	0.5490895194323714	-0.732493142758636	0.0	0.587733867410014	-0.790580793795273	0.0	0.5736830799111087	-0.789437124989955	0.0	0.5306140709023139	-0.7455118898043704	0.0	0.6297644786469512	-0.43869958450446866	0.0	0.5924377227860846	-0.5893868658636358	0.0	0.5556649915725808	-0.7299054353218499	0.0	0.5942724728266516	-0.7846673740878086	0.0	0.592819704323947	-0.779028798473941	0.0	0.5357033704470039	-0.7438080910526039	0.0	0.8070223124294195	-0.3842725176138949	0.0	0.8986221581485075	-0.4069581589116788	0.0	0.8417871029537003	-0.42966254875321247	0.0	0.7915088324486769	-0.37607117700895454	0.0	0.711924942687492	-0.42185983510942165	0.0	0.7394985757802187	-0.5075385945890646	0.0	0.7944268380877462	-0.37806763824387674	0.0	0.751662892743334	-0.4348598392717596	0.0	0.7675708598121824	-0.4952513978541311	0.0
32	1.0751322751322752	0.6403374640693521	-0.4215353110812294	0.0	0.6384708308382449	-0.42538035595552387	0.0	0.6000169673372923	-0.5758843106599228	0.0	0.5504398234641751	-0.7157613646295955	0.0	0.5852325467644843	-0.7766776439418753	0.0	0.572681988765491	-0.7746949959646999	0.0	0.5313937607077919	-0.7279191889916646	0.0	0.6397908782675548	-0.42328134895588115	0.0	0.5972059420847095	-0.5741336108105057	0.0	0.5549476413437612	-0.7128719161258836	0.0	0.589946121856105	-0.770818657562923	0.0	0.5890886226860242	-0.7652933163462524	0.0	0.5347480105798205	-0.7255305284928041	0.0	0.8233416044871575	-0.3869585035923207	0.0	0.9130976487893195	-0.4198186564204502	0.0	0.8535210934496821	-0.4358089051055	0.0	0.8091010880711506	-0.3791216460239275	0.0	0.7252334447975312	-0.4178719254735239	0.0	0.73925064222169	-0.5075703093500884	0.0	0.8116706050951134	-0.37710296266831467	0.0	0.7611747897636867	-0.43051666220540696	0.0	0.7722811339176648	-0.4944047154647879	0.0
33	1.1087301587301588	0.6525998797221625	-0.4076528038644953	0.0	0.6515704617693723	-0.41193421605826785	0.0	0.6086560623615561	-0.5617010997113169	0.0	0.550846199724978	-0.6976134527798233	0.0	0.5814162697394846	-0.7613286201729914	0.0	0.5701659826834312	-0.7585481260240231	0.0	0.530923245876447	-0.7087014335253976	0.0	0.6508976713418962	-0.40788620006190995	0.0	0.6036896379129344	-0.5585485229313463	0.0	0.5536597136881852	-0.6940695431078697	0.0	0.5843782943639794	-0.7557623367295802	0.0	0.5837485809584043	-0.7501776580120134	0.0	0.5330096863410907	-0.705283111294255	0.0	0.8390079354940206	-0.3905722832360892	0.0	0.9259396037021889	-0.43337146022942774	0.0	0.8644432332064512	-0.4428213757939763	0.0	0.8256888942556739	-0.3830208581648573	0.0	0.7384941471664441	-0.41444876420108945	0.0	0.7385146246848168	-0.5059257816755894	0.0	0.8283901444835694	-0.3769329090552639	0.0	0.7692887268576308	-0.42596664551011015	0.0	0.7757098600589186	-0.49287207972085	0.0
34	1.1423280423280424	0.6653035556682688	-0.3939368171611273	0.0	0.6650207960892829	-0.398733418652244	0.0	0.6183119540571499	-0.5474686089517704	0.0	0.5504176532594374	-0.678368407418305	0.0	0.5764178604845951	-0.7448415708682095	0.0	0.5662963026081985	-0.7412948556804948	0.0	0.5294774630658823	-0.6880592998940945	0.0	0.6628238520110897	-0.39287438671618263	0.0	0.6116956351879005	-0.5430347795540773	0.0	0.5521937761095707	-0.6736926108661329	0.0	0.5779546308151826	-0.7395200695591982	0.0	0.57733021313811	-0.7337230516564303	0.0	0.5308147589003112	-0.6831348892367913	0.0	0.8536756007423163	-0.39501708649617256	0.0	0.9367711718606787	-0.44681617474553115	0.0	0.8744054338535062	-0.45020485152105844	0.0	0.8408051792062873	-0.3876353552536805	0.0	0.7513400951640278	-0.41159697659575967	0.0	0.7374418776509576	-0.5027889023694361	0.0	0.844309410052091	-0.37784165985251167	0.0	0.776729153394991	-0.4215846204767664	0.0	0.7778272877326962	-0.4909522397164564	0.0
35	1.175925925925926	0.6784610065251161	-0.3806493967770478	0.0	0.6789233473440972	-0.3860188449195464	0.0	0.628784451117787	-0.5332787389648703	0.0	0.5495112637093986	-0.6581446570754506	0.0	0.5707148344465308	-0.7271037150611047	0.0	0.5615822847389811	-0.72284964628199	0.0	0.5276530912594513	-0.6661314343029947	0.0	0.6754899603863015	-0.37848483437076225	0.0	0.6208981253807783	-0.5277273469193967	0.0	0.5508053275025908	-0.6517351866471718	0.0	0.5712735280429665	-0.7216611894463344	0.0	0.57061561964661	-0.7155852776877064	0.0	0.5285711303386091	-0.6590170591929836	0.0	0.8671392802516498	-0.39996557453819337	0.0	0.9454429529730027	-0.4597418013631688	0.0	0.8832906746154421	-0.45736365433661347	0.0	0.8544466625618552	-0.3926744233182142	0.0	0.7635330879985819	-0.4091799835919477	0.0	0.736241709898093	-0.4983894518859478	0.0	0.8591179306287605	-0.38003166224174856	0.0	0.7839780357065187	-0.4174180541076458	0.0	0.778435386956689	-0.48868293783514455	0.0
36	1.2095238095238097	0.6924085859829432	-0.36794454469559207	0.0	0.6937155834591568	-0.3739194048451979	0.0	0.6400030445382795	-0.5190622971981632	0.0	0.5485693962149789	-0.6367771796648131	0.0	0.5648628109279388	-0.7076557174214226	0.0	0.5565438084103277	-0.7027743190367308	0.0	0.5261070513799393	-0.6428406822060466	0.0	0.6891639987127137	-0.36484784729039293	0.0	0.6311359637059228	-0.5125380860789713	0.0	0.549623316326277	-0.6277458620498518	0.0	0.564877720307196	-0.7012023009334685	0.0	0.5642593664522068	-0.6947537268036231	0.0	0.5266864061748524	-0.6325165182097844	0.0	0.8794852567952068	-0.4051885759062647	0.0	0.952063802276265	-0.4720519790312778	0.0	0.8911073275437889	-0.46400663145224186	0.0	0.8670047764764014	-0.39791525844292885	0.0	0.775097298268212	-0.4069335702640224	0.0	0.7352356746190292	-0.49280353901760804	0.0	0.8727667172362917	-0.38360109099863504	0.0	0.7913873590517372	-0.41323204436084027	0.0	0.7773642055067198	-0.4858123487714022	0.0
37	1.243121693121693	0.7075506964505012	-0.35598794642198317	0.0	0.7097576147281793	-0.36259014517002197	0.0	0.6517710989844089	-0.5049137513158929	0.0	0.5479741092492247	-0.6142320889959634	0.0	0.5592677110723291	-0.6861527998464951	0.0	0.551530872278263	-0.6807350865343121	0.0	0.525367830411731	-0.618232843953837	0.0	0.7041756227202811	-0.3521481111308509	0.0	0.6423527220720575	-0.4975445179843679	0.0	0.548732060463817	-0.6011936907210482	0.0	0.5589795214249625	-0.6771145810130743	0.0	0.558488001177287	-0.6699755443757707	0.0	0.525533583852031	-0.6032480826804277	0.0	0.8908993652154943	-0.41071155371617163	0.0	0.9568324136637566	-0.48360626193801765	0.0	0.897893247981593	-0.4702963721029115	0.0	0.8787775754834831	-0.4033295360538564	0.0	0.786147608941855	-0.404629585281731	0.0	0.7348159125795741	-0.48610484216863575	0.0	0.8854372671331147	-0.38838028590841744	0.0	0.7992427356213306	-0.40871808084042255	0.0	0.7748471961428118	-0.4818347360674992	0.0
38	1.2767195767195767	0.7239891647440497	-0.34497158368781894	0.0	0.7268948461194514	-0.35224637886960003	0.0	0.6636090411012014	-0.4912280105167759	0.0	0.5480342506017843	-0.5909579406091413	0.0	0.5541870899317796	-0.6628053711773109	0.0	0.5468084470635363	-0.6569521237360358	0.0	0.5257814758066239	-0.5928310553795796	0.0	0.7205304904315308	-0.340716878879085	0.0	0.6543276057508436	-0.4831743180290339	0.0	0.5482924797305061	-0.5721140975524054	0.0	0.5534449110786869	-0.6491450238847597	0.0	0.5531284924091601	-0.6407706182054431	0.0	0.5254365016750911	-0.5714989678205172	0.0	0.9013949289155023	-0.41660274850179363	0.0	0.9597823462305152	-0.4941334291562703	0.0	0.9035117764641584	-0.4765523037545965	0.0	0.889712043888178	-0.4088886523999923	0.0	0.7966561639263595	-0.4021892391028995	0.0	0.7353038956846898	-0.4785107311738347	0.0	0.8972496162033321	-0.3939621271809931	0.0	0.8076639995775522	-0.4037513886345691	0.0	0.7715634916145689	-0.47632840876610255	0.0
39	1.3103174603174603	0.7414305577359314	-0.33490863132329324	0.0	0.7444604644178161	-0.3429453612223777	0.0	0.6749723724339255	-0.478305793193616	0.0	0.5490294068827952	-0.5675515768219173	0.0	0.5497939153661241	-0.6382654855576034	0.0	0.5426199162371019	-0.6320874335630947	0.0	0.5274908209739599	-0.5673130710571179	0.0	0.7378694967967658	-0.3308038147694541	0.0	0.6666564475222777	-0.46979094632418683	0.0	0.5486810519063889	-0.5411999598996945	0.0	0.5479636258901612	-0.6179909087524088	0.0	0.5478562582397183	-0.6079404347744416	0.0	0.5266509037452803	-0.5381994619600337	0.0	0.9108569677276471	-0.42273344933234874	0.0	0.960753494855013	-0.5035703992906683	0.0	0.9076522095964091	-0.48281566585821983	0.0	0.8996859191239375	-0.41434057871102503	0.0	0.8065421261528246	-0.39962495926593644	0.0	0.7368361614422682	-0.4702172649992752	0.0	0.9082394067293569	-0.3999666226117605	0.0	0.8165890128381159	-0.39852089179203337	0.0	0.7684112192460618	-0.4693442032692381	0.0
